# xmcd
#
# Track frame offsets: 
#        150
#        10500
#        21654
#        35433
#        47523
#        60497
#        71863
#        85833
#        97272
#        109854
#        122506
#        135094
#        149128
#        161174
#        172499
#        184244
#        194893
#        208881
#        220646
#        233964
#        245543
#        259996
#        270990
#        283509
#        295534
#        305750
#        316998
#        328816
#
# Disc length: 4551 seconds
#
# Revision: 0
# Processed by: cddbd v1.5.2PL0 Copyright (c) Steve Scherf et al.
# Submitted via: ExactAudioCopyFreeDBPlugin 1.0
#
DISCID=b811c51c
DTITLE=Various Artist - It's Jamaica Jump Blues Time!:  Jamaican Soun
DTITLE=d System Classics, 1941-1962
DYEAR=2015
DGENRE=Rhythm and Blues
TTITLE0=Calvin Boze - I've Got News for You
TTITLE1=Jay McNeeley - Don't Cry Baby
TTITLE2=Jimmy McCracklin - Rockin' Man
TTITLE3=Roy Hawkins - Trouble Makin' Woman
TTITLE4=Billy Wright - Hey Little Girl
TTITLE5=Johnny Ace - Follow the Rule
TTITLE6=Dave Bartholomew - The Golden Rule
TTITLE7=Clarence "Gatemouth" Brown - You Got Money
TTITLE8=The "5" Royales - Baby Don't Do It
TTITLE9=Rudy Ferguson - Cool Goofin'
TTITLE10=The Griffin Brothers - The Teaser
TTITLE11=The Chocolateers - Peckin'
TTITLE12=T-Bone Walker - Tell Me What's the Reason
TTITLE13=Smiley Lewis - You're Not the One
TTITLE14=King Pleasure - Jumpin' with Symphony Sid
TTITLE15=King Curtis - Tenor in the Sky
TTITLE16=Lynn Hope - Girl of My Dreams
TTITLE17=The Charms - Hearts of Stone
TTITLE18=The Penguins - Ookey Ook
TTITLE19=The Five Thrills - Feel So Good
TTITLE20=Tab Smith - My Mother's Eyes
TTITLE21=Johnny Ace - Please Forgive Me
TTITLE22=Varetta Dillard - Johnny Has Gone
TTITLE23=Louis Brooks - It's Love Baby (24 Hours A Day)
TTITLE24=Bobby Mitchell - Nothing Sweet as You
TTITLE25=Charlie and Ray - Oh Gee-Oo-Wee
TTITLE26=Wynonie Harris - Fishtail Blues
TTITLE27=Willis Jackson - Howling at Midnight
EXTD=
EXTT0=
EXTT1=
EXTT2=
EXTT3=
EXTT4=
EXTT5=
EXTT6=
EXTT7=
EXTT8=
EXTT9=
EXTT10=
EXTT11=
EXTT12=
EXTT13=
EXTT14=
EXTT15=
EXTT16=
EXTT17=
EXTT18=
EXTT19=
EXTT20=
EXTT21=
EXTT22=
EXTT23=
EXTT24=
EXTT25=
EXTT26=
EXTT27=
PLAYORDER=
